<?xml version="1.0" encoding="UTF-8"?>
<svg id="Layer_1" data-name="Layer 1" xmlns="http://www.w3.org/2000/svg" viewBox="0 0 1080 1080">
  <defs>
    <style>
      .cls-1 {
        fill: #fff;
      }
    </style>
  </defs>
  <circle class="cls-1" cx="587.8" cy="570.75" r="106.45"/>
  <path class="cls-1" d="M652.98,282.07l-200.63,167.91s-29.81,34.15-36.89,64.05c0,0-28.28,64.83,11.78,141.19,0,0,18.57,40.14,59.12,65.93,0,0,91.33,70.15,203.26-.26,0,0-65.8,52.27-158.19,52.27,0,0-60.79.14-108.84-23.18,0,0-60.65-21.2-112.41-94.76,0,0-47.86-63.75-45.2-148.53,0,0,.23-34.53,6.05-56.71l151.79-75.84s184.21-91.81,230.17-92.08Z"/>
  <path class="cls-1" d="M27.22,792.4s2.43-170.8,172.43-298.6c0,0-21.09,100.26,46.19,193.49,0,0-125.24-11.63-218.62,105.11Z"/>
  <path class="cls-1" d="M864.82,290.38c49.34,104.24,38.37,203.42,38.37,203.42-10.07,188.01-148.45,298.6-148.45,298.6-234.42,192.43-471.13,55.55-471.13,55.55,0,0,83.56,98.82,267.06,111.13,0,0,216.72,17.23,355.76-166.68,0,0,103.73-119.19,86.16-298.6,0,0-7.15-78.6-32.52-128.42,0,0,80.38-88.6,92.72-244.9,0,0-96.89,85.44-234.38,92.37l-180.34,154.43,226.75-76.89Z"/>
</svg>